<svg xmlns="http://www.w3.org/2000/svg" viewBox="0 0 180 180">
  <rect width="180" height="180" rx="40" fill="#0B0B0D"/>
  <rect x="16" y="45" width="40" height="90" rx="6" fill="#1E1E24" stroke="#C8FF00" stroke-width="1.5"/>
  <rect x="70" y="28" width="40" height="124" rx="6" fill="#1E1E24" stroke="#C8FF00" stroke-width="1.5"/>
  <rect x="124" y="55" width="40" height="70" rx="6" fill="#1E1E24" stroke="#C8FF00" stroke-width="1.5"/>
  <rect x="24" y="55" width="24" height="10" rx="2" fill="#C8FF00"/>
  <rect x="24" y="72" width="24" height="10" rx="2" fill="#C8FF00" opacity="0.5"/>
  <rect x="24" y="89" width="24" height="10" rx="2" fill="#C8FF00" opacity="0.3"/>
  <rect x="78" y="38" width="24" height="10" rx="2" fill="#C8FF00"/>
  <rect x="78" y="55" width="24" height="10" rx="2" fill="#C8FF00" opacity="0.5"/>
  <rect x="78" y="72" width="24" height="10" rx="2" fill="#C8FF00" opacity="0.3"/>
  <rect x="78" y="89" width="24" height="10" rx="2" fill="#C8FF00" opacity="0.15"/>
  <rect x="132" y="65" width="24" height="10" rx="2" fill="#C8FF00"/>
  <rect x="132" y="82" width="24" height="10" rx="2" fill="#C8FF00" opacity="0.5"/>
</svg>